<svg width="154" height="154" viewBox="0 0 154 154" fill="none" xmlns="http://www.w3.org/2000/svg">
<path d="M153.61 147.21C153.61 148.907 152.936 150.535 151.736 151.735C150.536 152.935 148.908 153.61 147.21 153.61H6.41031C4.71293 153.61 3.08506 152.935 1.88483 151.735C0.684598 150.535 0.0103138 148.907 0.0103138 147.21C0.0103138 145.512 0.684598 143.884 1.88483 142.684C3.08506 141.484 4.71293 140.81 6.41031 140.81H147.21C148.908 140.81 150.536 141.484 151.736 142.684C152.936 143.884 153.61 145.512 153.61 147.21ZM1.87271 54.7425C0.493657 52.1846 -0.14524 49.293 0.0277246 46.3921C0.20069 43.4913 1.17867 40.6961 2.85191 38.3201C5.58637 34.3081 9.24836 31.0149 13.5271 28.7201L61.5335 3.73453C66.252 1.28097 71.492 0 76.8103 0C82.1286 0 87.3686 1.28097 92.0871 3.73453L140.087 28.7393C144.366 31.0341 148.028 34.3273 150.762 38.3393C152.436 40.7153 153.414 43.5105 153.587 46.4113C153.759 49.3122 153.121 52.2038 151.742 54.7617C150.257 57.5702 148.03 59.9176 145.304 61.5482C142.577 63.1788 139.456 64.0303 136.279 64.0097H134.41V115.21H140.81C142.508 115.21 144.136 115.884 145.336 117.084C146.536 118.284 147.21 119.912 147.21 121.61C147.21 123.307 146.536 124.935 145.336 126.135C144.136 127.335 142.508 128.01 140.81 128.01H12.8103C11.1129 128.01 9.48506 127.335 8.28483 126.135C7.0846 124.935 6.41031 123.307 6.41031 121.61C6.41031 119.912 7.0846 118.284 8.28483 117.084C9.48506 115.884 11.1129 115.21 12.8103 115.21H19.2103V64.0097H17.3415C14.1617 64.0296 11.0376 63.1759 8.30976 61.5417C5.58197 59.9075 3.35533 57.5556 1.87271 54.7425ZM32.0103 115.21H51.2103V64.0097H32.0103V115.21ZM64.0103 64.0097V115.21H89.6103V64.0097H64.0103ZM121.61 64.0097H102.41V115.21H121.61V64.0097ZM13.2135 48.8097C13.6151 49.5501 14.2126 50.1656 14.9408 50.589C15.6689 51.0123 16.4995 51.227 17.3415 51.2097H136.279C137.121 51.227 137.952 51.0123 138.68 50.589C139.408 50.1656 140.006 49.5501 140.407 48.8097C140.7 48.3205 140.841 47.7558 140.814 47.1865C140.786 46.6172 140.592 46.0687 140.254 45.6097C138.703 43.3052 136.619 41.4084 134.18 40.0801L86.1799 15.0753C83.2872 13.574 80.0758 12.7904 76.8167 12.7904C73.5576 12.7904 70.3463 13.574 67.4535 15.0753L19.4535 40.0801C17.015 41.4127 14.9321 43.3112 13.3799 45.6161C13.0413 46.0731 12.8449 46.6198 12.8153 47.1879C12.7857 47.7559 12.9242 48.32 13.2135 48.8097Z" fill="white"/>
</svg>
