<svg width="20" height="12" viewBox="0 0 20 12" fill="none" xmlns="http://www.w3.org/2000/svg">
<path opacity="0.35" d="M3.99998 2.09999H14.2C15.3598 2.09999 16.3 3.04019 16.3 4.19999V7.19999C16.3 8.35979 15.3598 9.29999 14.2 9.29999H3.99998C2.84018 9.29999 1.89998 8.35979 1.89998 7.19999V4.19999C1.89998 3.04019 2.84018 2.09999 3.99998 2.09999Z" stroke="white" stroke-width="0.6"/>
<path opacity="0.4" d="M17.2 4.79999V7.33219C17.7094 7.11773 18.0407 6.61883 18.0407 6.06609C18.0407 5.51335 17.7094 5.01445 17.2 4.79999" fill="white"/>
<path d="M2.79999 4.2C2.79999 3.53726 3.33725 3 3.99999 3H14.2C14.8627 3 15.4 3.53726 15.4 4.2V7.2C15.4 7.86274 14.8627 8.4 14.2 8.4H3.99999C3.33725 8.4 2.79999 7.86274 2.79999 7.2V4.2Z" fill="white"/>
</svg>
