<svg width="15" height="16" viewBox="0 0 15 16" fill="none" xmlns="http://www.w3.org/2000/svg">
<path d="M11.2776 7.34115C11.4969 7.34115 11.6698 7.16832 11.6698 6.94895V1.32518C11.6698 1.09917 11.4969 0.926331 11.2776 0.926331C11.0582 0.926331 10.8854 1.09917 10.8854 1.32518V6.94895C10.8854 7.17496 11.0516 7.34115 11.2776 7.34115ZM12.8597 6.58334C13.079 6.58334 13.2519 6.4105 13.2519 6.19114V2.0697C13.2519 1.85698 13.079 1.68414 12.8597 1.68414C12.647 1.68414 12.4741 1.85698 12.4741 2.0697V6.19114C12.4741 6.4105 12.647 6.58334 12.8597 6.58334ZM7.16278 15.7103C8.67176 15.7103 9.70876 14.5537 9.76859 13.2774H12.5007C13.192 13.2774 13.6108 12.8984 13.6108 12.3401C13.6108 11.6354 12.966 11.0305 12.3611 10.4455C11.9756 10.06 11.816 9.3221 11.7761 8.68394C11.7695 8.56429 11.7628 8.44463 11.7628 8.33162C11.3108 8.47122 10.8455 8.41804 10.4599 8.09896C10.4666 8.29839 10.4732 8.51111 10.4732 8.73047C10.4932 9.87384 10.7391 10.5984 11.138 11.0571C11.4703 11.436 11.8426 11.7883 12.0088 11.9811V12.0609H2.30347V11.9811C2.4763 11.7883 2.86186 11.436 3.18758 11.0571C3.64626 10.5319 3.85898 9.58135 3.92546 8.31833C4.00523 5.61945 4.82951 4.72204 5.9064 4.42955C6.06594 4.38967 6.15901 4.3099 6.1723 4.13042C6.19889 3.62521 6.4382 3.27289 6.75728 3.15324C6.91682 2.56161 7.43533 2.10958 8.10007 2.10958C8.13996 2.10958 8.17984 2.10958 8.22638 2.11623C8.22638 2.09629 8.22638 2.08299 8.23302 2.06305C7.92724 1.89022 7.56163 1.77721 7.16278 1.77721C6.1723 1.77721 5.43443 2.4486 5.18183 3.32607C3.44684 3.95758 2.71561 5.63939 2.6292 8.15879C2.54278 9.0695 2.43642 9.98685 1.96445 10.4455C1.36617 11.0305 0.714722 11.6354 0.714722 12.3401C0.714722 12.8984 1.14016 13.2774 1.82485 13.2774H4.55697C4.61679 14.547 5.6538 15.7103 7.16278 15.7103ZM9.69547 6.23102C9.91484 6.23102 10.0877 6.05819 10.0877 5.83217V2.42201C10.0877 2.20929 9.91484 2.02981 9.69547 2.02981C9.4761 2.02981 9.30327 2.20929 9.30327 2.42201V5.83217C9.30327 6.05819 9.4761 6.23102 9.69547 6.23102ZM14.4484 5.39344C14.6744 5.39344 14.8406 5.22725 14.8406 5.00124V3.25295C14.8406 3.03358 14.6678 2.86075 14.4484 2.86075C14.2291 2.86075 14.0562 3.04023 14.0562 3.25295V5.00124C14.0562 5.22725 14.2291 5.39344 14.4484 5.39344ZM8.10007 5.04777C8.32609 5.04777 8.49892 4.87493 8.49892 4.66222V3.60527C8.49892 3.3859 8.32609 3.21306 8.10007 3.21306C7.88735 3.21306 7.71452 3.3859 7.71452 3.60527V4.66222C7.71452 4.87493 7.88735 5.04777 8.10007 5.04777ZM7.16278 14.6467C6.41161 14.6467 5.86652 14.1083 5.81334 13.2774H8.51222C8.46569 14.1083 7.92059 14.6467 7.16278 14.6467Z" fill="white"/>
</svg>
