<svg width="8" height="8" viewBox="0 0 8 8" fill="none" xmlns="http://www.w3.org/2000/svg">
<path d="M5.8956 7.5172C6.54245 7.5172 6.98231 7.33239 7.3815 6.89992C7.40738 6.87035 7.43325 6.83709 7.45913 6.80752C7.67721 6.56356 7.7844 6.30852 7.7844 6.07195C7.7844 5.79473 7.63655 5.54338 7.30758 5.31791L6.20608 4.54908C5.85863 4.30882 5.45574 4.29034 5.14525 4.60083L4.87172 4.87436C4.77562 4.97046 4.68321 4.97785 4.57232 4.90023C4.37272 4.76716 3.9957 4.4345 3.73696 4.17576C3.47452 3.91332 3.20839 3.61762 3.06424 3.39214C2.98661 3.27756 2.99401 3.18885 3.09011 3.09274L3.36364 2.81922C3.67412 2.50873 3.65564 2.10583 3.41169 1.75838L2.62807 0.638406C2.40999 0.320525 2.14756 0.172673 1.87033 0.168977C1.63377 0.16528 1.38242 0.272473 1.13847 0.486858C1.1089 0.512732 1.07933 0.538606 1.04976 0.56448C0.609898 0.967376 0.421387 1.39984 0.421387 2.07257C0.421387 3.16297 1.05345 4.44928 2.28432 5.67275C3.50779 6.88883 4.77931 7.5172 5.8956 7.5172ZM5.8956 6.89992C4.95304 6.91471 3.78132 6.24568 2.75375 5.2255C1.71879 4.20533 1.03127 2.98925 1.04606 2.04669C1.05345 1.65119 1.19391 1.30374 1.47113 1.05978C1.5007 1.03761 1.52288 1.01912 1.55245 0.996946C1.65595 0.908235 1.76684 0.860183 1.87033 0.860183C1.97753 0.860183 2.07363 0.904539 2.14756 1.01543L2.83876 2.05409C2.92747 2.17976 2.93117 2.32391 2.8018 2.44959L2.5061 2.7416C2.22518 3.01512 2.25105 3.3367 2.42847 3.58805C2.62807 3.86527 3.0014 4.29034 3.31558 4.60083C3.65195 4.9335 4.11029 5.34378 4.37642 5.53599C4.62777 5.71341 4.94934 5.73929 5.22287 5.45837L5.51488 5.16267C5.63685 5.0333 5.78101 5.03699 5.91038 5.12201L6.93056 5.80212C7.04514 5.87605 7.0858 5.96846 7.0858 6.07565C7.0858 6.17915 7.03775 6.29004 6.94904 6.39723C6.92686 6.4231 6.90838 6.44528 6.8862 6.47485C6.64225 6.75577 6.29479 6.89623 5.8956 6.89992Z" fill="white"/>
</svg>
