<svg width="18" height="19" viewBox="0 0 18 19" fill="none" xmlns="http://www.w3.org/2000/svg">
<g clip-path="url(#clip0_7_494)">
<g clip-path="url(#clip1_7_494)">
<path d="M8.58866 18.5065H3.46519C1.64929 18.5065 0.171539 17.0288 0.171539 15.2129V10.0894C0.171539 8.27351 1.64929 6.79575 3.46519 6.79575H8.58866C10.4046 6.79575 11.8823 8.27351 11.8823 10.0894V15.2129C11.8823 17.0288 10.4046 18.5065 8.58866 18.5065ZM3.46519 7.52768C2.05258 7.52768 0.903463 8.6768 0.903463 10.0894V15.2129C0.903463 16.6255 2.05258 17.7746 3.46519 17.7746H8.58866C10.0013 17.7746 11.1504 16.6255 11.1504 15.2129V10.0894C11.1504 8.6768 10.0013 7.52768 8.58866 7.52768H3.46519ZM17.7377 8.62556C17.7377 4.38773 14.2903 0.940369 10.0525 0.940369C9.85049 0.940369 9.68654 1.10432 9.68654 1.30633C9.68654 1.50834 9.85049 1.67229 10.0525 1.67229C13.8863 1.67229 17.0058 4.79175 17.0058 8.62556C17.0058 8.82757 17.1697 8.99152 17.3717 8.99152C17.5737 8.99152 17.7377 8.82757 17.7377 8.62556ZM14.81 8.62556C14.81 6.00235 12.6757 3.86806 10.0525 3.86806C9.85049 3.86806 9.68654 4.03201 9.68654 4.23402C9.68654 4.43603 9.85049 4.59999 10.0525 4.59999C12.2717 4.59999 14.0781 6.40564 14.0781 8.62556C14.0781 8.82757 14.242 8.99152 14.444 8.99152C14.6461 8.99152 14.81 8.82757 14.81 8.62556ZM3.09923 8.99152C2.69521 8.99152 2.36731 9.31943 2.36731 9.72345C2.36731 10.1275 2.69521 10.4554 3.09923 10.4554C3.50325 10.4554 3.83116 10.1275 3.83116 9.72345C3.83116 9.31943 3.50325 8.99152 3.09923 8.99152Z" fill="white"/>
</g>
</g>
<defs>
<clipPath id="clip0_7_494">
<rect width="17.5662" height="17.5662" fill="white" transform="translate(0.171539 0.940369)"/>
</clipPath>
<clipPath id="clip1_7_494">
<rect width="17.5662" height="17.5662" fill="white" transform="translate(0.171539 0.940369)"/>
</clipPath>
</defs>
</svg>
