<svg width="18" height="18" viewBox="0 0 18 18" fill="none" xmlns="http://www.w3.org/2000/svg">
<g clip-path="url(#clip0_7_476)">
<path d="M16.5842 2.32677C16.4581 2.26773 16.3178 2.24587 16.1797 2.26376C16.0417 2.28165 15.9116 2.33855 15.8047 2.42778L11.9877 5.60945L9.52626 2.53537C9.45509 2.4537 9.36724 2.38824 9.26863 2.34338C9.17003 2.29852 9.06296 2.27531 8.95463 2.27531C8.8463 2.27531 8.73923 2.29852 8.64062 2.34338C8.54202 2.38824 8.45417 2.4537 8.383 2.53537L5.92154 5.60945L2.10383 2.42778C1.99696 2.33877 1.86695 2.28205 1.72902 2.26426C1.59109 2.24647 1.45094 2.26834 1.32499 2.32732C1.19904 2.38631 1.0925 2.47995 1.01785 2.59729C0.9432 2.71463 0.903525 2.85082 0.903473 2.98989V13.2368C0.903473 13.8192 1.13481 14.3777 1.5466 14.7895C1.95839 15.2012 2.51689 15.4326 3.09924 15.4326H14.81C15.3924 15.4326 15.9509 15.2012 16.3627 14.7895C16.7744 14.3777 17.0058 13.8192 17.0058 13.2368V2.98989C17.0058 2.85072 16.9662 2.71441 16.8915 2.59696C16.8169 2.47951 16.7102 2.38578 16.5842 2.32677ZM15.5419 13.2368C15.5419 13.4309 15.4648 13.6171 15.3276 13.7544C15.1903 13.8916 15.0041 13.9687 14.81 13.9687H3.09924C2.90512 13.9687 2.71896 13.8916 2.58169 13.7544C2.44443 13.6171 2.36732 13.4309 2.36732 13.2368V12.5049H15.5419V13.2368ZM15.5419 11.041H2.36732V4.55255L5.55851 7.21163C5.63327 7.27396 5.71971 7.32076 5.81278 7.34928C5.90585 7.3778 6.00367 7.38747 6.10052 7.37773C6.19737 7.36798 6.2913 7.33901 6.37682 7.29252C6.46234 7.24603 6.53773 7.18294 6.59857 7.10696L8.95463 4.16097L11.3107 7.10623C11.3715 7.18232 11.447 7.2455 11.5325 7.29206C11.6181 7.33861 11.7121 7.36762 11.8091 7.37737C11.906 7.38712 12.0039 7.37741 12.0971 7.34883C12.1902 7.32024 12.2767 7.27335 12.3515 7.21089L15.5419 4.55255V11.041ZM11.1504 8.84528C11.1504 9.0394 11.0733 9.22557 10.936 9.36283C10.7988 9.50009 10.6126 9.5772 10.4185 9.5772H7.49078C7.29666 9.5772 7.1105 9.50009 6.97323 9.36283C6.83597 9.22557 6.75886 9.0394 6.75886 8.84528C6.75886 8.65116 6.83597 8.46499 6.97323 8.32773C7.1105 8.19047 7.29666 8.11336 7.49078 8.11336H10.4185C10.6126 8.11336 10.7988 8.19047 10.936 8.32773C11.0733 8.46499 11.1504 8.65116 11.1504 8.84528Z" fill="white"/>
</g>
<defs>
<clipPath id="clip0_7_476">
<rect width="17.5662" height="17.5662" fill="white" transform="translate(0.171539 0.0621948)"/>
</clipPath>
</defs>
</svg>
