<svg width="13" height="9" viewBox="0 0 13 9" fill="none" xmlns="http://www.w3.org/2000/svg">
<path d="M6.14848 3.47258C6.71251 3.47258 7.17398 3.93405 7.17398 4.49808C7.17398 5.0621 6.71251 5.52357 6.14848 5.52357C5.58446 5.52357 5.12299 5.0621 5.12299 4.49808C5.12299 3.93405 5.58446 3.47258 6.14848 3.47258ZM10.5017 8.8513C12.9014 6.45164 12.9014 2.54964 10.5017 0.149979C10.3017 -0.0499929 9.97871 -0.0499929 9.77874 0.149979C9.57876 0.34995 9.57876 0.672981 9.77874 0.872953C11.7785 2.87267 11.7785 6.12349 9.77874 8.1232C9.57876 8.32317 9.57876 8.6462 9.77874 8.84618C9.88128 8.94872 10.0095 8.99487 10.1428 8.99487C10.2761 8.99487 10.4043 8.9436 10.5068 8.84618L10.5017 8.8513ZM8.68658 7.03618C9.36341 6.35935 9.73772 5.45691 9.73772 4.49808C9.73772 3.53924 9.36341 2.6368 8.68658 1.95998C8.48661 1.76001 8.16358 1.76001 7.96361 1.95998C7.76364 2.15995 7.76364 2.48298 7.96361 2.68295C8.44559 3.16493 8.71222 3.811 8.71222 4.49808C8.71222 5.18516 8.44559 5.82609 7.96361 6.3132C7.76364 6.51317 7.76364 6.83621 7.96361 7.03618C8.06616 7.13873 8.19435 7.18487 8.32766 7.18487C8.46097 7.18487 8.58916 7.1336 8.69171 7.03618H8.68658ZM2.52336 8.8513C2.72333 8.65133 2.72333 8.3283 2.52336 8.12833C0.523644 6.12861 0.523644 2.8778 2.52336 0.87808C2.72333 0.678109 2.72333 0.355078 2.52336 0.155106C2.32339 -0.0448654 2.00036 -0.0448654 1.80038 0.155106C-0.599273 2.54451 -0.599273 6.45164 1.79526 8.8513C1.89781 8.95385 2.02599 9 2.15931 9C2.29262 9 2.42081 8.94872 2.52336 8.8513ZM4.33849 7.03618C4.53846 6.83621 4.53846 6.51317 4.33849 6.3132C3.33863 5.31335 3.33863 3.68794 4.33849 2.68808C4.53846 2.48811 4.53846 2.16508 4.33849 1.9651C4.13851 1.76513 3.81548 1.76513 3.61551 1.9651C2.21571 3.36491 2.21571 5.6415 3.61551 7.0413C3.71806 7.14385 3.84625 7.19 3.97956 7.19C4.11288 7.19 4.24106 7.13873 4.34361 7.0413L4.33849 7.03618Z" fill="#46A2FF"/>
</svg>
