<svg width="58" height="44" viewBox="0 0 58 44" fill="none" xmlns="http://www.w3.org/2000/svg">
<path d="M28.9998 17.2C31.6398 17.2 33.7998 19.36 33.7998 22C33.7998 24.64 31.6398 26.8 28.9998 26.8C26.3598 26.8 24.1998 24.64 24.1998 22C24.1998 19.36 26.3598 17.2 28.9998 17.2ZM49.3758 42.376C60.6078 31.144 60.6078 12.88 49.3758 1.64804C48.4398 0.712045 46.9278 0.712045 45.9918 1.64804C45.0558 2.58404 45.0558 4.09604 45.9918 5.03204C55.3518 14.392 55.3518 29.608 45.9918 38.968C45.0558 39.904 45.0558 41.416 45.9918 42.352C46.4718 42.832 47.0718 43.048 47.6958 43.048C48.3198 43.048 48.9198 42.808 49.3998 42.352L49.3758 42.376ZM40.8798 33.88C44.0478 30.712 45.7998 26.488 45.7998 22C45.7998 17.512 44.0478 13.288 40.8798 10.12C39.9438 9.18405 38.4318 9.18405 37.4958 10.12C36.5598 11.056 36.5598 12.568 37.4958 13.504C39.7518 15.76 40.9998 18.784 40.9998 22C40.9998 25.216 39.7518 28.216 37.4958 30.496C36.5598 31.432 36.5598 32.944 37.4958 33.88C37.9758 34.36 38.5758 34.576 39.1998 34.576C39.8238 34.576 40.4238 34.336 40.9038 33.88H40.8798ZM12.0318 42.376C12.9678 41.44 12.9678 39.928 12.0318 38.992C2.67177 29.632 2.67177 14.416 12.0318 5.05605C12.9678 4.12005 12.9678 2.60804 12.0318 1.67204C11.0958 0.736045 9.58377 0.736045 8.64777 1.67204C-2.58423 12.856 -2.58423 31.144 8.62377 42.376C9.10377 42.856 9.70377 43.072 10.3278 43.072C10.9518 43.072 11.5518 42.832 12.0318 42.376ZM20.5278 33.88C21.4638 32.944 21.4638 31.432 20.5278 30.496C15.8478 25.816 15.8478 18.208 20.5278 13.528C21.4638 12.592 21.4638 11.08 20.5278 10.144C19.5918 9.20805 18.0798 9.20805 17.1438 10.144C10.5918 16.696 10.5918 27.352 17.1438 33.904C17.6238 34.384 18.2238 34.6 18.8478 34.6C19.4718 34.6 20.0718 34.36 20.5518 33.904L20.5278 33.88Z" fill="white"/>
</svg>
