<svg width="14" height="7" viewBox="0 0 14 7" fill="none" xmlns="http://www.w3.org/2000/svg">
<path d="M3.00439 3.20264C3.83154 3.20264 4.50146 2.47461 4.50146 1.58252C4.50146 0.700684 3.83496 0 3.00439 0C2.18408 0 1.50732 0.710938 1.51074 1.58594C1.51074 2.47803 2.18066 3.20264 3.00439 3.20264ZM6.87695 3.20264C7.70068 3.20264 8.37061 2.47461 8.37061 1.58252C8.37061 0.700684 7.70752 0 6.87695 0C6.05322 0 5.37988 0.710938 5.3833 1.58594C5.3833 2.47803 6.05322 3.20264 6.87695 3.20264ZM10.7495 3.20264C11.5767 3.20264 12.2466 2.47461 12.2466 1.58252C12.2466 0.700684 11.5801 0 10.7495 0C9.9292 0 9.25244 0.710938 9.25586 1.58594C9.25586 2.47803 9.92578 3.20264 10.7495 3.20264ZM3.00439 2.61475C2.53271 2.61475 2.12939 2.16357 2.12939 1.58594C2.12598 1.02539 2.52588 0.591309 3.00439 0.591309C3.48633 0.591309 3.88281 1.01855 3.88281 1.58252C3.88281 2.15674 3.48291 2.61475 3.00439 2.61475ZM6.87695 2.61475C6.40186 2.61475 6.00195 2.16357 6.00195 1.58594C5.99854 1.02539 6.39844 0.591309 6.87695 0.591309C7.35889 0.591309 7.75195 1.01855 7.75195 1.58252C7.75195 2.15674 7.35547 2.61475 6.87695 2.61475ZM10.7495 2.61475C10.2778 2.61475 9.87451 2.16357 9.87451 1.58594C9.87109 1.02539 10.271 0.591309 10.7495 0.591309C11.2314 0.591309 11.6279 1.01855 11.6279 1.58252C11.6279 2.15674 11.228 2.61475 10.7495 2.61475ZM0.875 6.42236H5.13721C5.7251 6.42236 6.00879 6.23779 6.00879 5.83789C6.00879 4.90137 4.83984 3.64355 3.00439 3.64355C1.16895 3.64355 0 4.90137 0 5.83789C0 6.23779 0.283691 6.42236 0.875 6.42236ZM6.87695 3.64355C6.31641 3.64355 5.8208 3.76318 5.40039 3.95459C5.58154 4.09131 5.74219 4.2417 5.87549 4.40576C6.1626 4.30322 6.50098 4.23486 6.87695 4.23486C8.38428 4.23486 9.23193 5.21924 9.23193 5.74219C9.23193 5.80713 9.20117 5.83105 9.11914 5.83105H6.47021C6.47363 6.04297 6.43604 6.24121 6.31299 6.42236H9.00635C9.59424 6.42236 9.88135 6.23779 9.88135 5.83789C9.88135 4.90137 8.70898 3.64355 6.87695 3.64355ZM10.7495 3.64355C10.189 3.64355 9.69336 3.76318 9.26953 3.95459C9.45068 4.09131 9.61475 4.2417 9.74805 4.40918C10.0352 4.30322 10.3735 4.23486 10.7495 4.23486C12.2603 4.23486 13.1079 5.21924 13.1079 5.74219C13.1079 5.80713 13.0737 5.83105 12.9951 5.83105H10.3428C10.3428 6.04297 10.3086 6.24121 10.1821 6.42236H12.8823C13.4702 6.42236 13.7539 6.23779 13.7539 5.83789C13.7539 4.90137 12.585 3.64355 10.7495 3.64355ZM0.758789 5.83105C0.680176 5.83105 0.649414 5.80713 0.649414 5.74219C0.649414 5.21924 1.49365 4.23486 3.00439 4.23486C4.51514 4.23486 5.36279 5.21924 5.36279 5.74219C5.36279 5.80713 5.32861 5.83105 5.25 5.83105H0.758789Z" fill="black"/>
</svg>
