<svg width="23" height="18" viewBox="0 0 23 18" fill="none" xmlns="http://www.w3.org/2000/svg">
<path fill-rule="evenodd" clip-rule="evenodd" d="M6.02951 0.123108C2.84472 0.123108 0.242706 2.66103 0.242706 5.81644V15.4556C0.242706 16.0689 0.953247 16.3748 1.40427 15.9997C2.48786 15.0985 3.94701 14.54 5.56189 14.54C7.70879 14.54 9.57613 15.5263 10.6562 16.9883L11.1733 17.6883L11.6905 16.9883C12.7705 15.5263 14.6379 14.54 16.7848 14.54C18.3997 14.54 19.8588 15.0985 20.9424 15.9997C21.3934 16.3748 22.104 16.0689 22.104 15.4556V5.81644C22.104 2.66103 19.5019 0.123108 16.3172 0.123108C14.0839 0.123108 12.1372 1.37104 11.1733 3.20472C10.2094 1.37104 8.26275 0.123108 6.02951 0.123108ZM6.02951 1.40906C8.52641 1.40906 10.5304 3.39338 10.5304 5.81644V15.0014C9.21366 13.9109 7.46636 13.254 5.56189 13.254C4.07805 13.254 2.69113 13.6525 1.52866 14.3431V5.81644C1.52866 3.39338 3.5326 1.40906 6.02951 1.40906ZM11.8163 15.0014C13.133 13.9109 14.8803 13.254 16.7848 13.254C18.2686 13.254 19.6555 13.6525 20.818 14.3431V5.81644C20.818 3.39338 18.8141 1.40906 16.3172 1.40906C13.8203 1.40906 11.8163 3.39338 11.8163 5.81644V15.0014Z" fill="white"/>
</svg>
