<svg width="48" height="48" viewBox="0 0 48 48" fill="none" xmlns="http://www.w3.org/2000/svg">
<path d="M6.10352e-05 4.8C6.10352e-05 3.85065 0.281576 2.92262 0.809007 2.13326C1.33644 1.34391 2.0861 0.728681 2.96318 0.36538C3.84027 0.00207975 4.80539 -0.0929762 5.73649 0.0922328C6.6676 0.277442 7.52288 0.734597 8.19417 1.40589C8.86547 2.07718 9.32262 2.93246 9.50783 3.86357C9.69304 4.79468 9.59798 5.7598 9.23468 6.63688C8.87138 7.51397 8.25615 8.26363 7.4668 8.79106C6.67744 9.31849 5.74941 9.6 4.80006 9.6C3.52702 9.6 2.30612 9.09429 1.40595 8.19412C0.505774 7.29394 6.10352e-05 6.07304 6.10352e-05 4.8ZM4.80006 28.8C5.74941 28.8 6.67744 28.5185 7.4668 27.9911C8.25615 27.4636 8.87138 26.714 9.23468 25.8369C9.59798 24.9598 9.69304 23.9947 9.50783 23.0636C9.32262 22.1325 8.86547 21.2772 8.19417 20.6059C7.52288 19.9346 6.6676 19.4774 5.73649 19.2922C4.80539 19.107 3.84027 19.2021 2.96318 19.5654C2.0861 19.9287 1.33644 20.5439 0.809007 21.3333C0.281576 22.1226 6.10352e-05 23.0507 6.10352e-05 24C6.10352e-05 25.273 0.505774 26.4939 1.40595 27.3941C2.30612 28.2943 3.52702 28.8 4.80006 28.8ZM4.80006 48C5.74941 48 6.67744 47.7185 7.4668 47.1911C8.25615 46.6636 8.87138 45.914 9.23468 45.0369C9.59798 44.1598 9.69304 43.1947 9.50783 42.2636C9.32262 41.3325 8.86547 40.4772 8.19417 39.8059C7.52288 39.1346 6.6676 38.6774 5.73649 38.4922C4.80539 38.307 3.84027 38.4021 2.96318 38.7654C2.0861 39.1287 1.33644 39.7439 0.809007 40.5333C0.281576 41.3226 6.10352e-05 42.2507 6.10352e-05 43.2C6.10352e-05 44.473 0.505774 45.6939 1.40595 46.5941C2.30612 47.4943 3.52702 48 4.80006 48ZM45.6001 2.4H19.2001C18.5635 2.4 17.9531 2.65286 17.503 3.10295C17.0529 3.55303 16.8001 4.16348 16.8001 4.8C16.8001 5.43652 17.0529 6.04697 17.503 6.49706C17.9531 6.94715 18.5635 7.2 19.2001 7.2H45.6001C46.2366 7.2 46.847 6.94715 47.2971 6.49706C47.7472 6.04697 48.0001 5.43652 48.0001 4.8C48.0001 4.16348 47.7472 3.55303 47.2971 3.10295C46.847 2.65286 46.2366 2.4 45.6001 2.4V2.4ZM45.6001 21.6H19.2001C18.5635 21.6 17.9531 21.8529 17.503 22.3029C17.0529 22.753 16.8001 23.3635 16.8001 24C16.8001 24.6365 17.0529 25.247 17.503 25.6971C17.9531 26.1471 18.5635 26.4 19.2001 26.4H45.6001C46.2366 26.4 46.847 26.1471 47.2971 25.6971C47.7472 25.247 48.0001 24.6365 48.0001 24C48.0001 23.3635 47.7472 22.753 47.2971 22.3029C46.847 21.8529 46.2366 21.6 45.6001 21.6ZM45.6001 40.8H19.2001C18.5635 40.8 17.9531 41.0529 17.503 41.5029C17.0529 41.953 16.8001 42.5635 16.8001 43.2C16.8001 43.8365 17.0529 44.447 17.503 44.8971C17.9531 45.3471 18.5635 45.6 19.2001 45.6H45.6001C46.2366 45.6 46.847 45.3471 47.2971 44.8971C47.7472 44.447 48.0001 43.8365 48.0001 43.2C48.0001 42.5635 47.7472 41.953 47.2971 41.5029C46.847 41.0529 46.2366 40.8 45.6001 40.8Z" fill="white"/>
</svg>
