<svg width="13" height="12" viewBox="0 0 13 12" fill="none" xmlns="http://www.w3.org/2000/svg">
<path d="M6.99994 4.20002C6.99994 3.86865 7.26857 3.60002 7.59994 3.60002H8.19994C8.53131 3.60002 8.79994 3.86865 8.79994 4.20002V9.00002C8.79994 9.33139 8.53131 9.60002 8.19994 9.60002H7.59994C7.26857 9.60002 6.99994 9.33139 6.99994 9.00002V4.20002Z" fill="white"/>
<path d="M9.99994 3.00002C9.99994 2.66865 10.2686 2.40002 10.5999 2.40002H11.1999C11.5313 2.40002 11.7999 2.66865 11.7999 3.00002V9.00002C11.7999 9.33139 11.5313 9.60002 11.1999 9.60002H10.5999C10.2686 9.60002 9.99994 9.33139 9.99994 9.00002V3.00002Z" fill="white"/>
<path d="M3.99994 6.30002C3.99994 5.96865 4.26857 5.70002 4.59994 5.70002H5.19994C5.53131 5.70002 5.79994 5.96865 5.79994 6.30002V9.00002C5.79994 9.33139 5.53131 9.60002 5.19994 9.60002H4.59994C4.26857 9.60002 3.99994 9.33139 3.99994 9.00002V6.30002Z" fill="white"/>
<path d="M0.999939 7.80002C0.999939 7.46865 1.26857 7.20002 1.59994 7.20002H2.19994C2.53131 7.20002 2.79994 7.46865 2.79994 7.80002V9.00002C2.79994 9.33139 2.53131 9.60002 2.19994 9.60002H1.59994C1.26857 9.60002 0.999939 9.33139 0.999939 9.00002V7.80002Z" fill="white"/>
</svg>
