<svg width="9" height="8" viewBox="0 0 9 8" fill="none" xmlns="http://www.w3.org/2000/svg">
<path d="M6.03337 7.5172C6.31546 7.5172 6.48262 7.31869 6.48262 7.00874V6.1555H6.62193C7.62841 6.1555 8.23438 5.55301 8.23438 4.51519V1.8092C8.23438 0.774859 7.64582 0.168884 6.59755 0.168884H2.15722C1.11243 0.168884 0.520386 0.774859 0.520386 1.8092V4.51519C0.520386 5.54953 1.11243 6.1555 2.15722 6.1555H4.25375L5.44829 7.20725C5.68859 7.41969 5.83486 7.5172 6.03337 7.5172ZM5.86272 6.7371L4.75873 5.64704C4.60898 5.4938 4.50798 5.45898 4.29554 5.45898H2.18159C1.53034 5.45898 1.21343 5.12813 1.21343 4.49429V1.83009C1.21343 1.19626 1.53034 0.865407 2.18159 0.865407H6.57666C7.23139 0.865407 7.54134 1.19626 7.54134 1.83009V4.49429C7.54134 5.12813 7.23139 5.45898 6.57666 5.45898H6.14829C5.94978 5.45898 5.86272 5.53908 5.86272 5.74455V6.7371Z" fill="white"/>
</svg>
