<svg width="18" height="18" viewBox="0 0 18 18" fill="none" xmlns="http://www.w3.org/2000/svg">
<g clip-path="url(#clip0_7_485)">
<path d="M8.95462 8.05245C9.67842 8.05245 10.386 7.83782 10.9878 7.43569C11.5896 7.03357 12.0587 6.46202 12.3357 5.79331C12.6127 5.1246 12.6851 4.38877 12.5439 3.67888C12.4027 2.96898 12.0542 2.3169 11.5424 1.80509C11.0306 1.29329 10.3785 0.944743 9.66857 0.803535C8.95868 0.662328 8.22285 0.734801 7.55414 1.01179C6.88544 1.28878 6.31388 1.75784 5.91176 2.35966C5.50964 2.96148 5.295 3.66903 5.295 4.39283C5.29616 5.36307 5.6821 6.29323 6.36816 6.97929C7.05422 7.66535 7.98439 8.05129 8.95462 8.05245V8.05245ZM8.95462 2.19706C9.3889 2.19706 9.81343 2.32584 10.1745 2.56712C10.5356 2.80839 10.8171 3.15132 10.9832 3.55255C11.1494 3.95377 11.1929 4.39527 11.1082 4.82121C11.0235 5.24714 10.8143 5.63839 10.5073 5.94548C10.2002 6.25256 9.80893 6.46169 9.38299 6.54641C8.95705 6.63114 8.51556 6.58765 8.11433 6.42146C7.71311 6.25527 7.37018 5.97383 7.1289 5.61274C6.88763 5.25165 6.75885 4.82712 6.75885 4.39283C6.75885 3.81048 6.99019 3.25198 7.40198 2.84019C7.81376 2.4284 8.37226 2.19706 8.95462 2.19706V2.19706ZM2.36731 16.1036C2.36731 14.3565 3.06133 12.681 4.29669 11.4457C5.53205 10.2103 7.20756 9.5163 8.95462 9.5163C10.7017 9.5163 12.3772 10.2103 13.6125 11.4457C14.8479 12.681 15.5419 14.3565 15.5419 16.1036C15.5419 16.2977 15.4648 16.4839 15.3276 16.6212C15.1903 16.7584 15.0041 16.8355 14.81 16.8355C14.6159 16.8355 14.4297 16.7584 14.2925 16.6212C14.1552 16.4839 14.0781 16.2977 14.0781 16.1036C14.0781 14.7448 13.5383 13.4416 12.5775 12.4808C11.6166 11.5199 10.3134 10.9801 8.95462 10.9801C7.59579 10.9801 6.29262 11.5199 5.33178 12.4808C4.37095 13.4416 3.83116 14.7448 3.83116 16.1036C3.83116 16.2977 3.75404 16.4839 3.61678 16.6212C3.47952 16.7584 3.29335 16.8355 3.09923 16.8355C2.90511 16.8355 2.71895 16.7584 2.58168 16.6212C2.44442 16.4839 2.36731 16.2977 2.36731 16.1036Z" fill="white"/>
</g>
<defs>
<clipPath id="clip0_7_485">
<rect width="17.5662" height="17.5662" fill="white" transform="translate(0.171539 0.00128174)"/>
</clipPath>
</defs>
</svg>
