<svg width="13" height="12" viewBox="0 0 13 12" fill="none" xmlns="http://www.w3.org/2000/svg">
<path fill-rule="evenodd" clip-rule="evenodd" d="M6.70019 3.95254C8.18013 3.95261 9.60347 4.53306 10.676 5.57392C10.7568 5.65427 10.8859 5.65326 10.9654 5.57164L11.7375 4.77629C11.7778 4.7349 11.8002 4.67883 11.7999 4.62048C11.7996 4.56214 11.7765 4.50634 11.7357 4.46543C8.92058 1.71156 4.47936 1.71156 1.66421 4.46543C1.62343 4.50631 1.6003 4.56209 1.59992 4.62044C1.59954 4.67878 1.62196 4.73487 1.66221 4.77629L2.43449 5.57164C2.51399 5.65338 2.64319 5.6544 2.7239 5.57392C3.79661 4.53299 5.22011 3.95254 6.70019 3.95254ZM6.72146 6.35365C7.53459 6.3536 8.3187 6.6621 8.92143 7.21922C9.00296 7.29828 9.13138 7.29657 9.21084 7.21535L9.98201 6.42C10.0226 6.37829 10.0452 6.32169 10.0446 6.26288C10.044 6.20407 10.0203 6.14796 9.9789 6.10709C8.14345 4.36434 5.30103 4.36434 3.46558 6.10709C3.42412 6.14796 3.40047 6.2041 3.39992 6.26293C3.39938 6.32176 3.42199 6.37835 3.46269 6.42L4.23364 7.21535C4.31311 7.29657 4.44153 7.29828 4.52305 7.21922C5.12538 6.66247 5.90887 6.35399 6.72146 6.35365ZM8.28964 7.90605C8.29082 7.96503 8.26811 8.02189 8.22687 8.0632L6.8929 9.43734C6.8538 9.47772 6.80049 9.50045 6.74486 9.50045C6.68923 9.50045 6.63592 9.47772 6.59681 9.43734L5.26263 8.0632C5.22141 8.02185 5.19874 7.96498 5.19996 7.906C5.20118 7.84703 5.22619 7.79118 5.26908 7.75165C6.121 7.01615 7.36872 7.01615 8.22063 7.75165C8.2635 7.79122 8.28846 7.84708 8.28964 7.90605Z" fill="white"/>
</svg>
